<svg xmlns="http://www.w3.org/2000/svg" viewBox="0 0 24 24" fill="currentColor" width="18" height="18" aria-hidden="true">
  <path d="M19.43 12.98c.04-.32.07-.64.07-.98s-.03-.66-.07-.98l2.11-1.65a.5.5 0 0 0 .12-.63l-2-3.46a.5.5 0 0 0-.61-.22l-2.49 1a7.3 7.3 0 0 0-1.69-.98l-.38-2.65a.5.5 0 0 0-.5-.43h-4a.5.5 0 0 0-.5.43l-.38 2.65c-.61.24-1.17.57-1.69.98l-2.49-1a.5.5 0 0 0-.61.22l-2 3.46a.5.5 0 0 0 .12.63l2.11 1.65c-.04.32-.07.65-.07.98s.03.65.07.98l-2.11 1.65a.5.5 0 0 0-.12.63l2 3.46a.5.5 0 0 0 .61.22l2.49-1c.52.41 1.08.74 1.69.98l.38 2.65a.5.5 0 0 0 .5.43h4a.5.5 0 0 0 .5-.43l.38-2.65c.61-.24 1.17-.57 1.69-.98l2.49 1a.5.5 0 0 0 .61-.22l2-3.46a.5.5 0 0 0-.12-.63l-2.11-1.65zM12 15.5a3.5 3.5 0 1 1 0-7 3.5 3.5 0 0 1 0 7z"/>
</svg>
